<svg width="250" height="142" viewBox="0 0 250 142" fill="none" xmlns="http://www.w3.org/2000/svg">
<path d="M116.771 91.9156H117.2C117.659 91.9156 118.059 91.7724 118.403 91.4861C118.746 91.1426 119.033 90.7418 119.262 90.2838C119.548 89.8257 119.748 89.339 119.863 88.8237C120.035 88.3084 120.121 87.8218 120.121 87.3637V41.4156C120.121 41.0148 120.035 40.5568 119.863 40.0415C119.748 39.5262 119.548 39.0395 119.262 38.5814C119.033 38.1234 118.746 37.7512 118.403 37.4649C118.059 37.1214 117.659 36.9496 117.2 36.9496H116.771V36.0908H149.836V44.078H148.978C148.863 42.7611 148.348 41.616 147.432 40.6427C146.516 39.612 145.084 39.0967 143.138 39.0967H125.875V60.8255H140.132C141.448 60.8255 142.536 60.4247 143.395 59.6231C144.311 58.8215 144.769 57.8768 144.769 56.7889H145.628V67.5244H144.769C144.769 66.4938 144.34 65.6064 143.481 64.862C142.622 64.1177 141.506 63.7455 140.132 63.7455H125.875V89.7685H144.683C145.771 89.7685 146.716 89.5108 147.518 88.9955C148.319 88.4802 148.978 87.879 149.493 87.1919C150.066 86.4476 150.466 85.6746 150.695 84.8731C150.982 84.0142 151.125 83.2985 151.125 82.726H151.984V92.7744H116.771V91.9156ZM185.835 38.3238C181.598 38.3238 177.905 39.0967 174.756 40.6427C171.664 42.1313 169.087 44.1067 167.026 46.5687C164.965 48.9734 163.419 51.6931 162.388 54.7277C161.415 57.7623 160.928 60.7682 160.928 63.7455C160.928 67.1236 161.587 70.4445 162.904 73.7081C164.221 76.9144 166.024 79.7773 168.314 82.2965C170.662 84.7585 173.382 86.7625 176.473 88.3084C179.565 89.7971 182.915 90.5414 186.522 90.5414C187.552 90.5414 188.755 90.4269 190.129 90.1979C191.56 89.9689 192.963 89.5394 194.337 88.9096C195.711 88.2225 196.971 87.2778 198.116 86.0754C199.319 84.8731 200.235 83.2985 200.865 81.3518H201.723V90.885C200.865 90.885 199.948 90.9995 198.975 91.2285C198.059 91.4575 197.028 91.7152 195.883 92.0015C194.395 92.4022 192.734 92.7744 190.902 93.118C189.127 93.4615 187.238 93.6333 185.234 93.6333C180.252 93.6333 175.872 92.7744 172.093 91.0567C168.314 89.339 165.165 87.1061 162.646 84.3578C160.127 81.6095 158.237 78.5176 156.978 75.0823C155.718 71.5896 155.088 68.0684 155.088 64.5185C155.088 60.9686 155.718 57.4473 156.978 53.9547C158.237 50.4621 160.155 47.3416 162.732 44.5933C165.308 41.7878 168.543 39.5262 172.437 37.8085C176.33 36.0908 180.911 35.2319 186.178 35.2319C188.068 35.2319 189.757 35.4037 191.245 35.7473C192.791 36.0908 194.166 36.4343 195.368 36.7779C196.227 37.0641 197 37.2932 197.687 37.4649C198.431 37.5794 199.147 37.6367 199.834 37.6367V47.1699H198.975C198.632 45.3949 198.002 43.9349 197.086 42.7898C196.169 41.5874 195.082 40.6713 193.822 40.0415C192.62 39.4116 191.303 38.9822 189.871 38.7532C188.497 38.4669 187.152 38.3238 185.835 38.3238ZM243.897 77.5729C243.897 80.4357 243.324 82.8977 242.179 84.9589C241.034 86.9629 239.545 88.5947 237.713 89.8543C235.938 91.114 233.905 92.0301 231.615 92.6026C229.382 93.1752 227.149 93.4615 224.916 93.4615C222.626 93.4615 220.651 93.2325 218.99 92.7744C217.33 92.3164 215.812 91.8869 214.438 91.4861C213.522 91.1999 212.692 90.9708 211.948 90.7991C211.203 90.5701 210.459 90.4555 209.715 90.4555V80.6647H210.573C210.573 82.8405 211.117 84.5868 212.205 85.9037C213.35 87.1633 214.667 88.1367 216.156 88.8237C217.645 89.5108 219.133 89.9689 220.622 90.1979C222.111 90.3697 223.198 90.4555 223.886 90.4555C226.348 90.4555 228.466 90.112 230.241 89.4249C232.016 88.6806 233.476 87.7359 234.621 86.5907C235.766 85.3884 236.596 84.0715 237.112 82.6401C237.684 81.2087 237.971 79.7486 237.971 78.26C237.971 76.3705 237.57 74.796 236.768 73.5363C235.967 72.2194 234.907 71.0743 233.59 70.101C232.331 69.1276 230.871 68.2974 229.21 67.6103C227.55 66.9232 225.861 66.2362 224.143 65.5491C222.196 64.8048 220.278 64.0318 218.389 63.2302C216.499 62.4286 214.81 61.4553 213.322 60.3102C211.833 59.1078 210.631 57.705 209.715 56.1018C208.799 54.4414 208.34 52.4088 208.34 50.004C208.34 47.4848 208.827 45.309 209.8 43.4768C210.774 41.5874 212.062 40.0415 213.665 38.8391C215.326 37.6367 217.187 36.7492 219.248 36.1767C221.366 35.5469 223.513 35.2319 225.689 35.2319C227.178 35.2319 228.581 35.3465 229.897 35.5755C231.214 35.7473 232.474 35.9763 233.676 36.2626C234.65 36.4916 235.594 36.692 236.511 36.8637C237.427 36.9783 238.314 37.0355 239.173 37.0355V45.8816H238.314C238.2 42.9043 237.026 40.9003 234.793 39.8697C232.56 38.7818 229.468 38.2379 225.517 38.2379C223.227 38.2379 221.338 38.6387 219.849 39.4403C218.418 40.1846 217.272 41.1293 216.414 42.2745C215.555 43.3623 214.954 44.5647 214.61 45.8816C214.324 47.1412 214.181 48.2577 214.181 49.2311C214.181 50.8343 214.524 52.2084 215.211 53.3535C215.956 54.4987 216.929 55.5006 218.131 56.3595C219.334 57.2183 220.708 57.9913 222.254 58.6784C223.857 59.3654 225.517 60.0239 227.235 60.6537C229.182 61.398 231.157 62.1996 233.161 63.0585C235.165 63.9173 236.94 64.9765 238.486 66.2362C240.089 67.4958 241.377 69.0417 242.351 70.8739C243.381 72.7061 243.897 74.9391 243.897 77.5729Z" fill="#D1D5DB"/>
<path d="M22.9571 133.702H23.1181C23.2899 133.702 23.4402 133.649 23.569 133.541C23.6979 133.412 23.8052 133.262 23.8911 133.09C23.9985 132.919 24.0736 132.736 24.1165 132.543C24.181 132.35 24.2132 132.167 24.2132 131.995V114.765C24.2132 114.615 24.181 114.443 24.1165 114.25C24.0736 114.056 23.9985 113.874 23.8911 113.702C23.8052 113.53 23.6979 113.391 23.569 113.283C23.4402 113.155 23.2899 113.09 23.1181 113.09H22.9571V112.768H35.3567V115.763H35.0346C34.9916 115.269 34.7984 114.84 34.4549 114.475C34.1113 114.089 33.5746 113.895 32.8445 113.895H26.371V122.044H31.7173C32.2111 122.044 32.6191 121.893 32.9412 121.593C33.2847 121.292 33.4565 120.938 33.4565 120.53H33.7785V124.556H33.4565C33.4565 124.169 33.2954 123.836 32.9734 123.557C32.6513 123.278 32.2326 123.139 31.7173 123.139H26.371V132.897H33.4243C33.8322 132.897 34.1865 132.801 34.4871 132.607C34.7877 132.414 35.0346 132.189 35.2278 131.931C35.4425 131.652 35.5928 131.362 35.6787 131.061C35.7861 130.739 35.8398 130.471 35.8398 130.256H36.1618V134.024H22.9571V133.702ZM46.125 134.024V132.382L45.964 132.543C45.4272 133.08 44.8045 133.498 44.096 133.799C43.4089 134.1 42.5715 134.25 41.5839 134.25C40.8324 134.25 40.1882 134.164 39.6515 133.992C39.1147 133.82 38.6745 133.584 38.331 133.284C37.9874 132.962 37.7298 132.597 37.558 132.189C37.4077 131.781 37.3326 131.351 37.3326 130.9C37.3326 130.17 37.5258 129.526 37.9123 128.968C38.3202 128.41 38.9 127.916 39.6515 127.486C40.4029 127.057 41.3155 126.671 42.389 126.327C43.484 125.962 44.7294 125.608 46.125 125.264C46.082 124.427 45.9103 123.751 45.6097 123.235C45.3091 122.72 44.9548 122.323 44.5469 122.044C44.1389 121.743 43.7095 121.55 43.2586 121.464C42.8077 121.356 42.4212 121.303 42.0992 121.303C41.5409 121.303 41.0471 121.389 40.6177 121.56C40.2097 121.732 39.8447 121.958 39.5226 122.237C39.222 122.494 38.9644 122.784 38.7497 123.106C38.535 123.407 38.3632 123.697 38.2344 123.976H37.9445V121.625C38.1163 121.603 38.2773 121.55 38.4276 121.464C38.5779 121.378 38.7604 121.292 38.9751 121.206C39.2972 121.077 39.7373 120.895 40.2956 120.659C40.8538 120.401 41.6375 120.272 42.6467 120.272C43.8276 120.272 44.783 120.422 45.5131 120.723C46.2431 121.024 46.8013 121.421 47.1878 121.915C47.5958 122.409 47.8641 122.978 47.993 123.622C48.1218 124.244 48.1862 124.888 48.1862 125.554V131.931C48.1862 132.36 48.2828 132.768 48.4761 133.155C48.6693 133.52 48.927 133.702 49.249 133.702V134.024H46.125ZM46.125 130.965V126.359L45.8029 126.424C45.2876 126.552 44.6542 126.724 43.9027 126.939C43.1727 127.154 42.4749 127.433 41.8093 127.776C41.1437 128.12 40.5747 128.528 40.1023 129C39.63 129.473 39.3938 130.02 39.3938 130.643C39.3938 131.33 39.6729 131.899 40.2312 132.35C40.7894 132.801 41.5194 133.026 42.4212 133.026C43.1298 133.026 43.7524 132.876 44.2892 132.575C44.826 132.253 45.3198 131.845 45.7707 131.351L46.125 130.965ZM61.8428 130.353C61.8428 130.911 61.7033 131.426 61.4241 131.899C61.145 132.371 60.7585 132.79 60.2647 133.155C59.7923 133.498 59.2341 133.777 58.5899 133.992C57.9458 134.185 57.248 134.282 56.4965 134.282C55.5733 134.282 54.8218 134.164 54.2421 133.928C53.6623 133.67 53.1685 133.412 52.7606 133.155C52.4814 132.983 52.2238 132.844 51.9876 132.736C51.7514 132.607 51.4938 132.543 51.2146 132.543V130.095H51.5367C51.6011 130.396 51.7836 130.729 52.0842 131.094C52.4063 131.437 52.782 131.759 53.2114 132.06C53.6623 132.36 54.1454 132.618 54.6607 132.833C55.1975 133.026 55.7343 133.123 56.2711 133.123C56.6576 133.123 57.0548 133.08 57.4627 132.994C57.8707 132.908 58.2357 132.768 58.5577 132.575C58.9013 132.382 59.1804 132.146 59.3951 131.867C59.6313 131.566 59.7494 131.212 59.7494 130.804C59.7494 130.396 59.6313 130.042 59.3951 129.741C59.1589 129.44 58.8583 129.183 58.4933 128.968C58.1283 128.732 57.7096 128.528 57.2373 128.356C56.7649 128.184 56.2925 128.023 55.8202 127.873C55.2619 127.701 54.6929 127.508 54.1132 127.293C53.555 127.079 53.0504 126.832 52.5995 126.552C52.1486 126.252 51.7836 125.898 51.5045 125.49C51.2254 125.06 51.0858 124.556 51.0858 123.976C51.0858 123.482 51.1717 123.01 51.3435 122.559C51.5367 122.108 51.8373 121.721 52.2452 121.399C52.6747 121.056 53.2222 120.787 53.8878 120.594C54.5534 120.38 55.3586 120.272 56.3033 120.272C57.1407 120.272 57.7848 120.347 58.2357 120.498C58.708 120.626 59.0945 120.766 59.3951 120.916C59.5884 121.024 59.7816 121.11 59.9748 121.174C60.1681 121.217 60.3828 121.238 60.619 121.238V123.493H60.3613C59.9748 122.784 59.3844 122.248 58.5899 121.883C57.7955 121.518 56.9796 121.335 56.1422 121.335C55.6055 121.335 55.1438 121.41 54.7574 121.56C54.3709 121.689 54.0488 121.861 53.7912 122.076C53.555 122.269 53.3725 122.494 53.2437 122.752C53.1363 123.01 53.0826 123.267 53.0826 123.525C53.0826 123.89 53.1792 124.201 53.3725 124.459C53.5872 124.717 53.8663 124.942 54.2098 125.135C54.5749 125.329 54.9721 125.511 55.4015 125.683C55.8524 125.855 56.3248 126.016 56.8186 126.166C57.4198 126.359 58.021 126.574 58.6222 126.81C59.2233 127.025 59.7601 127.293 60.2325 127.615C60.7048 127.937 61.0913 128.324 61.3919 128.775C61.6925 129.204 61.8428 129.73 61.8428 130.353ZM68.8037 138.63C68.5031 139.532 68.1166 140.144 67.6443 140.466C67.1934 140.788 66.721 140.949 66.2272 140.949C65.9051 140.949 65.6153 140.906 65.3576 140.82C65.1214 140.734 64.9067 140.627 64.7135 140.498C64.5417 140.391 64.4022 140.283 64.2948 140.176C64.1874 140.069 64.123 139.983 64.1016 139.918L65.1644 137.309C65.2717 137.696 65.3791 137.986 65.4864 138.179C65.5938 138.394 65.7441 138.587 65.9373 138.759C66.1306 138.931 66.3668 139.016 66.6459 139.016C67.1612 139.016 67.5691 138.641 67.8697 137.889L69.4479 133.928L64.2626 122.205C64.1552 121.947 63.9727 121.657 63.7151 121.335C63.4789 120.991 63.1461 120.82 62.7167 120.82V120.498H66.9679V120.82C66.8821 120.82 66.7747 120.895 66.6459 121.045C66.5171 121.195 66.4526 121.389 66.4526 121.625C66.4526 121.818 66.4956 121.99 66.5815 122.14L70.5429 131.255L74.3433 121.947C74.4077 121.797 74.4399 121.657 74.4399 121.528C74.4399 121.314 74.3647 121.142 74.2144 121.013C74.0856 120.884 73.946 120.82 73.7957 120.82V120.498H76.9198V120.82C76.5762 120.82 76.2757 120.97 76.018 121.271C75.7818 121.55 75.5886 121.872 75.4383 122.237L68.8037 138.63ZM89.2753 113.605C87.6864 113.605 86.3016 113.895 85.1206 114.475C83.9612 115.033 82.995 115.774 82.222 116.697C81.4491 117.599 80.8694 118.619 80.4829 119.757C80.1179 120.895 79.9354 122.022 79.9354 123.139C79.9354 124.405 80.1823 125.651 80.6761 126.875C81.17 128.077 81.8463 129.15 82.7051 130.095C83.5855 131.018 84.6053 131.77 85.7648 132.35C86.9242 132.908 88.1803 133.187 89.533 133.187C89.9194 133.187 90.3703 133.144 90.8856 133.058C91.4224 132.972 91.9484 132.811 92.4638 132.575C92.9791 132.317 93.4514 131.963 93.8808 131.512C94.3317 131.061 94.6753 130.471 94.9115 129.741H95.2335V133.316C94.9115 133.316 94.5679 133.359 94.2029 133.445C93.8594 133.531 93.4729 133.627 93.0435 133.735C92.4852 133.885 91.8626 134.024 91.1755 134.153C90.5099 134.282 89.8013 134.346 89.0499 134.346C87.1819 134.346 85.5393 134.024 84.1222 133.38C82.7051 132.736 81.5242 131.899 80.5795 130.868C79.6348 129.838 78.9262 128.678 78.4539 127.39C77.9815 126.08 77.7453 124.76 77.7453 123.428C77.7453 122.097 77.9815 120.777 78.4539 119.467C78.9262 118.157 79.6455 116.987 80.6117 115.957C81.5779 114.904 82.791 114.056 84.2511 113.412C85.7111 112.768 87.4288 112.446 89.4041 112.446C90.1127 112.446 90.7461 112.51 91.3043 112.639C91.884 112.768 92.3993 112.897 92.8502 113.026C93.1723 113.133 93.4622 113.219 93.7198 113.283C93.9989 113.326 94.2673 113.348 94.525 113.348V116.923H94.2029C94.0741 116.257 93.8379 115.71 93.4944 115.28C93.1508 114.829 92.7429 114.486 92.2705 114.25C91.8196 114.013 91.3258 113.852 90.789 113.766C90.2737 113.659 89.7691 113.605 89.2753 113.605ZM105.541 134.024V132.382L105.38 132.543C104.843 133.08 104.221 133.498 103.512 133.799C102.825 134.1 101.988 134.25 101 134.25C100.249 134.25 99.6044 134.164 99.0676 133.992C98.5308 133.82 98.0907 133.584 97.7471 133.284C97.4036 132.962 97.146 132.597 96.9742 132.189C96.8239 131.781 96.7487 131.351 96.7487 130.9C96.7487 130.17 96.942 129.526 97.3285 128.968C97.7364 128.41 98.3161 127.916 99.0676 127.486C99.8191 127.057 100.732 126.671 101.805 126.327C102.9 125.962 104.146 125.608 105.541 125.264C105.498 124.427 105.326 123.751 105.026 123.235C104.725 122.72 104.371 122.323 103.963 122.044C103.555 121.743 103.126 121.55 102.675 121.464C102.224 121.356 101.837 121.303 101.515 121.303C100.957 121.303 100.463 121.389 100.034 121.56C99.6259 121.732 99.2609 121.958 98.9388 122.237C98.6382 122.494 98.3805 122.784 98.1658 123.106C97.9511 123.407 97.7794 123.697 97.6505 123.976H97.3607V121.625C97.5324 121.603 97.6935 121.55 97.8438 121.464C97.9941 121.378 98.1766 121.292 98.3913 121.206C98.7133 121.077 99.1535 120.895 99.7117 120.659C100.27 120.401 101.054 120.272 102.063 120.272C103.244 120.272 104.199 120.422 104.929 120.723C105.659 121.024 106.217 121.421 106.604 121.915C107.012 122.409 107.28 122.978 107.409 123.622C107.538 124.244 107.602 124.888 107.602 125.554V131.931C107.602 132.36 107.699 132.768 107.892 133.155C108.085 133.52 108.343 133.702 108.665 133.702V134.024H105.541ZM105.541 130.965V126.359L105.219 126.424C104.704 126.552 104.07 126.724 103.319 126.939C102.589 127.154 101.891 127.433 101.225 127.776C100.56 128.12 99.9909 128.528 99.5185 129C99.0461 129.473 98.81 130.02 98.81 130.643C98.81 131.33 99.0891 131.899 99.6473 132.35C100.206 132.801 100.936 133.026 101.837 133.026C102.546 133.026 103.169 132.876 103.705 132.575C104.242 132.253 104.736 131.845 105.187 131.351L105.541 130.965ZM118.65 122.849C118.393 122.419 118.124 122.151 117.845 122.044C117.566 121.936 117.244 121.883 116.879 121.883C116.643 121.883 116.385 121.936 116.106 122.044C115.848 122.151 115.591 122.29 115.333 122.462C115.075 122.634 114.818 122.827 114.56 123.042C114.324 123.235 114.12 123.418 113.948 123.589V131.963C113.948 132.135 113.97 132.317 114.012 132.511C114.055 132.704 114.12 132.897 114.206 133.09C114.313 133.262 114.42 133.412 114.528 133.541C114.657 133.649 114.807 133.702 114.979 133.702V134.024H110.792V133.702C110.942 133.702 111.082 133.649 111.211 133.541C111.339 133.412 111.447 133.262 111.533 133.09C111.64 132.897 111.715 132.704 111.758 132.511C111.801 132.317 111.822 132.135 111.822 131.963V122.978C111.822 122.677 111.726 122.376 111.533 122.076C111.339 121.775 111.06 121.582 110.695 121.496V121.238L113.948 120.272V122.205C114.141 121.968 114.345 121.743 114.56 121.528C114.775 121.292 115.011 121.088 115.269 120.916C115.548 120.723 115.848 120.573 116.17 120.465C116.492 120.337 116.868 120.272 117.298 120.272C117.598 120.272 117.985 120.337 118.457 120.465C118.929 120.594 119.316 120.734 119.616 120.884L118.65 122.849ZM133.72 128.324C133.72 129.397 133.505 130.321 133.076 131.094C132.647 131.845 132.088 132.457 131.401 132.929C130.736 133.402 129.973 133.745 129.115 133.96C128.277 134.175 127.44 134.282 126.603 134.282C125.744 134.282 125.003 134.196 124.38 134.024C123.758 133.853 123.189 133.692 122.673 133.541C122.33 133.434 122.018 133.348 121.739 133.284C121.46 133.198 121.181 133.155 120.902 133.155V129.483H121.224C121.224 130.299 121.428 130.954 121.836 131.448C122.265 131.92 122.759 132.285 123.317 132.543C123.876 132.801 124.434 132.972 124.992 133.058C125.55 133.123 125.958 133.155 126.216 133.155C127.139 133.155 127.934 133.026 128.599 132.768C129.265 132.489 129.812 132.135 130.242 131.706C130.671 131.255 130.983 130.761 131.176 130.224C131.391 129.687 131.498 129.14 131.498 128.581C131.498 127.873 131.348 127.282 131.047 126.81C130.746 126.316 130.349 125.887 129.855 125.522C129.383 125.157 128.835 124.846 128.213 124.588C127.59 124.33 126.957 124.073 126.313 123.815C125.583 123.536 124.863 123.246 124.155 122.945C123.446 122.645 122.813 122.28 122.255 121.85C121.696 121.399 121.245 120.873 120.902 120.272C120.558 119.65 120.387 118.887 120.387 117.986C120.387 117.041 120.569 116.225 120.934 115.538C121.299 114.829 121.782 114.25 122.383 113.799C123.006 113.348 123.704 113.015 124.477 112.8C125.271 112.564 126.076 112.446 126.892 112.446C127.451 112.446 127.977 112.489 128.47 112.575C128.964 112.639 129.437 112.725 129.888 112.832C130.253 112.918 130.607 112.993 130.95 113.058C131.294 113.101 131.627 113.122 131.949 113.122V116.44H131.627C131.584 115.323 131.144 114.572 130.306 114.185C129.469 113.777 128.309 113.573 126.828 113.573C125.969 113.573 125.261 113.724 124.702 114.024C124.166 114.303 123.736 114.658 123.414 115.087C123.092 115.495 122.867 115.946 122.738 116.44C122.63 116.912 122.577 117.331 122.577 117.696C122.577 118.297 122.706 118.812 122.963 119.242C123.242 119.671 123.607 120.047 124.058 120.369C124.509 120.691 125.024 120.981 125.604 121.238C126.205 121.496 126.828 121.743 127.472 121.979C128.202 122.258 128.943 122.559 129.694 122.881C130.446 123.203 131.111 123.6 131.691 124.073C132.292 124.545 132.775 125.125 133.14 125.812C133.527 126.499 133.72 127.336 133.72 128.324ZM142.262 134.25C141.189 134.25 140.223 134.078 139.364 133.735C138.505 133.37 137.764 132.886 137.142 132.285C136.54 131.663 136.068 130.933 135.725 130.095C135.402 129.258 135.241 128.345 135.241 127.358C135.241 126.306 135.424 125.35 135.789 124.491C136.154 123.611 136.659 122.859 137.303 122.237C137.947 121.614 138.709 121.131 139.589 120.787C140.47 120.444 141.425 120.272 142.456 120.272C143.486 120.272 144.431 120.444 145.29 120.787C146.149 121.11 146.889 121.571 147.512 122.172C148.135 122.774 148.618 123.493 148.961 124.33C149.305 125.146 149.477 126.048 149.477 127.036C149.477 127.959 149.316 128.861 148.994 129.741C148.693 130.6 148.231 131.362 147.609 132.028C147.008 132.693 146.256 133.23 145.354 133.638C144.474 134.046 143.443 134.25 142.262 134.25ZM142.069 121.335C141.296 121.378 140.609 121.571 140.008 121.915C139.428 122.237 138.934 122.666 138.526 123.203C138.14 123.718 137.839 124.309 137.625 124.974C137.431 125.64 137.335 126.316 137.335 127.003C137.335 127.798 137.453 128.571 137.689 129.322C137.947 130.052 138.301 130.707 138.752 131.287C139.224 131.867 139.783 132.328 140.427 132.672C141.071 133.015 141.79 133.187 142.585 133.187C143.379 133.187 144.077 133.015 144.678 132.672C145.301 132.328 145.816 131.888 146.224 131.351C146.632 130.793 146.932 130.17 147.126 129.483C147.34 128.796 147.448 128.109 147.448 127.422C147.448 126.714 147.34 126.005 147.126 125.296C146.911 124.566 146.578 123.912 146.127 123.332C145.676 122.731 145.107 122.248 144.42 121.883C143.755 121.518 142.971 121.335 142.069 121.335ZM151.52 134.024V133.702C151.692 133.702 151.842 133.638 151.971 133.509C152.1 133.38 152.207 133.23 152.293 133.058C152.4 132.886 152.475 132.704 152.518 132.511C152.561 132.296 152.583 132.103 152.583 131.931V115.441C152.583 115.076 152.529 114.733 152.422 114.411C152.314 114.089 151.992 113.917 151.455 113.895V113.573L154.708 112.575V131.931C154.708 132.103 154.73 132.296 154.773 132.511C154.816 132.704 154.88 132.886 154.966 133.058C155.073 133.23 155.181 133.38 155.288 133.509C155.417 133.638 155.567 133.702 155.739 133.702V134.024H151.52ZM170.633 131.931C170.633 132.081 170.654 132.264 170.697 132.478C170.74 132.672 170.794 132.865 170.858 133.058C170.944 133.23 171.051 133.38 171.18 133.509C171.309 133.638 171.459 133.702 171.631 133.702V134.024H168.507V132.253C168.185 132.725 167.713 133.187 167.09 133.638C166.467 134.089 165.662 134.314 164.674 134.314C163.429 134.314 162.441 134.1 161.711 133.67C160.981 133.241 160.423 132.693 160.037 132.028C159.65 131.362 159.403 130.643 159.296 129.87C159.189 129.075 159.135 128.335 159.135 127.648V123.042C159.135 122.849 159.124 122.666 159.103 122.494C159.103 122.301 159.06 122.129 158.974 121.979C158.91 121.829 158.802 121.711 158.652 121.625C158.502 121.518 158.287 121.464 158.008 121.464V121.174L161.261 120.143V128.356C161.261 129.988 161.615 131.19 162.323 131.963C163.032 132.736 163.902 133.123 164.932 133.123C165.49 133.123 165.984 133.005 166.414 132.768C166.865 132.511 167.24 132.21 167.541 131.867C167.863 131.523 168.099 131.169 168.249 130.804C168.421 130.439 168.507 130.138 168.507 129.902V123.042C168.507 122.849 168.496 122.666 168.475 122.494C168.475 122.301 168.432 122.129 168.346 121.979C168.282 121.829 168.174 121.711 168.024 121.625C167.874 121.518 167.659 121.464 167.38 121.464V121.174L170.633 120.143V131.931ZM176.959 121.593V129.354C176.959 129.913 176.969 130.417 176.991 130.868C177.012 131.319 177.066 131.695 177.152 131.995C177.238 132.296 177.366 132.532 177.538 132.704C177.71 132.854 177.946 132.929 178.247 132.929C178.698 132.929 179.116 132.715 179.503 132.285C179.911 131.856 180.168 131.341 180.276 130.739H180.566V133.09C180.372 133.09 180.211 133.155 180.083 133.284C179.911 133.434 179.664 133.595 179.342 133.767C179.041 133.939 178.58 134.024 177.957 134.024C177.184 134.024 176.583 133.874 176.153 133.574C175.724 133.273 175.413 132.876 175.219 132.382C175.026 131.888 174.908 131.341 174.865 130.739C174.844 130.138 174.833 129.526 174.833 128.904V121.593H173.029V120.498H174.833V117.631C174.833 117.266 174.779 116.933 174.672 116.633C174.586 116.311 174.275 116.139 173.738 116.118V115.795L176.959 114.765V120.498H180.566V121.593H176.959ZM182.471 134.024V133.702C182.643 133.702 182.793 133.638 182.922 133.509C183.051 133.38 183.158 133.23 183.244 133.058C183.33 132.886 183.394 132.704 183.437 132.511C183.48 132.296 183.502 132.103 183.502 131.931V123.01C183.502 122.645 183.448 122.301 183.34 121.979C183.233 121.636 182.922 121.453 182.406 121.432V121.142L185.627 120.111V131.931C185.627 132.103 185.649 132.296 185.692 132.511C185.735 132.704 185.799 132.886 185.885 133.058C185.971 133.23 186.078 133.38 186.207 133.509C186.336 133.638 186.486 133.702 186.658 133.702V134.024H182.471ZM182.632 117.019C182.632 116.59 182.771 116.225 183.051 115.924C183.351 115.624 183.716 115.473 184.146 115.473C184.575 115.473 184.94 115.624 185.241 115.924C185.541 116.225 185.692 116.59 185.692 117.019C185.692 117.449 185.541 117.803 185.241 118.082C184.94 118.361 184.575 118.501 184.146 118.501C183.716 118.501 183.351 118.361 183.051 118.082C182.771 117.803 182.632 117.449 182.632 117.019ZM195.9 134.25C194.827 134.25 193.861 134.078 193.002 133.735C192.143 133.37 191.402 132.886 190.779 132.285C190.178 131.663 189.706 130.933 189.362 130.095C189.04 129.258 188.879 128.345 188.879 127.358C188.879 126.306 189.062 125.35 189.427 124.491C189.792 123.611 190.296 122.859 190.94 122.237C191.585 121.614 192.347 121.131 193.227 120.787C194.107 120.444 195.063 120.272 196.094 120.272C197.124 120.272 198.069 120.444 198.928 120.787C199.787 121.11 200.527 121.571 201.15 122.172C201.773 122.774 202.256 123.493 202.599 124.33C202.943 125.146 203.115 126.048 203.115 127.036C203.115 127.959 202.954 128.861 202.631 129.741C202.331 130.6 201.869 131.362 201.247 132.028C200.645 132.693 199.894 133.23 198.992 133.638C198.112 134.046 197.081 134.25 195.9 134.25ZM195.707 121.335C194.934 121.378 194.247 121.571 193.646 121.915C193.066 122.237 192.572 122.666 192.164 123.203C191.778 123.718 191.477 124.309 191.263 124.974C191.069 125.64 190.973 126.316 190.973 127.003C190.973 127.798 191.091 128.571 191.327 129.322C191.585 130.052 191.939 130.707 192.39 131.287C192.862 131.867 193.42 132.328 194.065 132.672C194.709 133.015 195.428 133.187 196.222 133.187C197.017 133.187 197.715 133.015 198.316 132.672C198.938 132.328 199.454 131.888 199.862 131.351C200.27 130.793 200.57 130.17 200.764 129.483C200.978 128.796 201.086 128.109 201.086 127.422C201.086 126.714 200.978 126.005 200.764 125.296C200.549 124.566 200.216 123.912 199.765 123.332C199.314 122.731 198.745 122.248 198.058 121.883C197.393 121.518 196.609 121.335 195.707 121.335ZM217.976 131.931C217.976 132.103 217.997 132.296 218.04 132.511C218.083 132.704 218.148 132.886 218.234 133.058C218.341 133.23 218.448 133.38 218.556 133.509C218.684 133.638 218.835 133.702 219.007 133.702V134.024H214.852V133.702C215.002 133.702 215.142 133.638 215.271 133.509C215.399 133.38 215.507 133.23 215.593 133.058C215.7 132.886 215.775 132.704 215.818 132.511C215.861 132.296 215.882 132.103 215.882 131.931V125.941C215.882 125.168 215.775 124.491 215.56 123.912C215.346 123.332 215.056 122.849 214.691 122.462C214.326 122.076 213.907 121.797 213.435 121.625C212.984 121.432 212.522 121.335 212.05 121.335C211.578 121.335 211.105 121.432 210.633 121.625C210.182 121.818 209.774 122.076 209.409 122.398C209.065 122.698 208.776 123.063 208.539 123.493C208.325 123.901 208.217 124.33 208.217 124.781V131.931C208.217 132.103 208.239 132.296 208.282 132.511C208.325 132.704 208.389 132.886 208.475 133.058C208.582 133.23 208.69 133.38 208.797 133.509C208.926 133.638 209.076 133.702 209.248 133.702V134.024H205.061V133.702C205.211 133.702 205.351 133.638 205.48 133.509C205.609 133.38 205.716 133.23 205.802 133.058C205.909 132.886 205.984 132.704 206.027 132.511C206.07 132.296 206.092 132.103 206.092 131.931V123.042C206.092 122.677 206.038 122.333 205.931 122.011C205.823 121.668 205.512 121.485 204.997 121.464V121.174L208.217 120.143V121.915C208.368 121.743 208.561 121.56 208.797 121.367C209.033 121.153 209.312 120.959 209.634 120.787C209.978 120.594 210.364 120.444 210.794 120.337C211.245 120.208 211.771 120.143 212.372 120.143C213.381 120.143 214.24 120.315 214.949 120.659C215.657 121.002 216.237 121.453 216.688 122.011C217.139 122.548 217.461 123.149 217.654 123.815C217.869 124.459 217.976 125.092 217.976 125.715V131.931ZM231.671 130.353C231.671 130.911 231.531 131.426 231.252 131.899C230.973 132.371 230.587 132.79 230.093 133.155C229.621 133.498 229.062 133.777 228.418 133.992C227.774 134.185 227.076 134.282 226.325 134.282C225.401 134.282 224.65 134.164 224.07 133.928C223.491 133.67 222.997 133.412 222.589 133.155C222.31 132.983 222.052 132.844 221.816 132.736C221.58 132.607 221.322 132.543 221.043 132.543V130.095H221.365C221.429 130.396 221.612 130.729 221.912 131.094C222.234 131.437 222.61 131.759 223.04 132.06C223.491 132.36 223.974 132.618 224.489 132.833C225.026 133.026 225.563 133.123 226.099 133.123C226.486 133.123 226.883 133.08 227.291 132.994C227.699 132.908 228.064 132.768 228.386 132.575C228.729 132.382 229.009 132.146 229.223 131.867C229.46 131.566 229.578 131.212 229.578 130.804C229.578 130.396 229.46 130.042 229.223 129.741C228.987 129.44 228.687 129.183 228.322 128.968C227.957 128.732 227.538 128.528 227.065 128.356C226.593 128.184 226.121 128.023 225.648 127.873C225.09 127.701 224.521 127.508 223.941 127.293C223.383 127.079 222.879 126.832 222.428 126.552C221.977 126.252 221.612 125.898 221.333 125.49C221.054 125.06 220.914 124.556 220.914 123.976C220.914 123.482 221 123.01 221.172 122.559C221.365 122.108 221.666 121.721 222.073 121.399C222.503 121.056 223.05 120.787 223.716 120.594C224.382 120.38 225.187 120.272 226.131 120.272C226.969 120.272 227.613 120.347 228.064 120.498C228.536 120.626 228.923 120.766 229.223 120.916C229.417 121.024 229.61 121.11 229.803 121.174C229.996 121.217 230.211 121.238 230.447 121.238V123.493H230.19C229.803 122.784 229.213 122.248 228.418 121.883C227.624 121.518 226.808 121.335 225.97 121.335C225.434 121.335 224.972 121.41 224.586 121.56C224.199 121.689 223.877 121.861 223.619 122.076C223.383 122.269 223.201 122.494 223.072 122.752C222.965 123.01 222.911 123.267 222.911 123.525C222.911 123.89 223.007 124.201 223.201 124.459C223.415 124.717 223.695 124.942 224.038 125.135C224.403 125.329 224.8 125.511 225.23 125.683C225.681 125.855 226.153 126.016 226.647 126.166C227.248 126.359 227.849 126.574 228.45 126.81C229.052 127.025 229.588 127.293 230.061 127.615C230.533 127.937 230.92 128.324 231.22 128.775C231.521 129.204 231.671 129.73 231.671 130.353Z" fill="#D1D5DB"/>
<path d="M34.9609 52.2993L53.1313 72.8459C54.1925 74.0459 56.0617 74.0551 57.1347 72.8656L103.508 21.4556" stroke="#22C55E" stroke-width="5.36777" stroke-linecap="round"/>
<path d="M95.5708 41.4302C100.053 50.4451 100.986 60.809 98.1849 70.4774C95.3843 80.1459 89.0533 88.4165 80.4406 93.657C71.828 98.8975 61.56 100.727 51.6628 98.7847C41.7656 96.8426 32.958 91.2702 26.9771 83.1675C20.9963 75.0648 18.276 65.0196 19.3536 55.0135C20.4312 45.0073 25.2284 35.7667 32.7996 29.1153C40.3707 22.4639 50.1653 18.8854 60.2505 19.0855C70.3357 19.2855 79.9787 23.2496 87.2774 30.1946" stroke="#22C55E" stroke-width="5.36777"/>
</svg>
