<svg width="149" height="84" viewBox="0 0 149 84" fill="none" xmlns="http://www.w3.org/2000/svg">
<path d="M75.0387 54.6835H75.2696C75.5158 54.6835 75.7313 54.6066 75.916 54.4527C76.1007 54.268 76.2546 54.0525 76.3777 53.8062C76.5316 53.56 76.6394 53.2983 76.7009 53.0213C76.7933 52.7443 76.8395 52.4826 76.8395 52.2364V27.5339C76.8395 27.3184 76.7933 27.0721 76.7009 26.7951C76.6394 26.5181 76.5316 26.2564 76.3777 26.0102C76.2546 25.7639 76.1007 25.5638 75.916 25.4099C75.7313 25.2252 75.5158 25.1329 75.2696 25.1329H75.0387V24.6711H92.8153V28.9652H92.3536C92.292 28.2572 92.015 27.6416 91.5224 27.1183C91.0299 26.5642 90.2604 26.2872 89.2138 26.2872H79.933V37.9689H87.5978C88.3057 37.9689 88.8906 37.7535 89.3523 37.3225C89.8448 36.8916 90.0911 36.3837 90.0911 35.7988H90.5528V41.5704H90.0911C90.0911 41.0164 89.8602 40.5392 89.3985 40.1391C88.9368 39.7389 88.3365 39.5388 87.5978 39.5388H79.933V53.5292H90.0449C90.6298 53.5292 91.1377 53.3907 91.5686 53.1137C91.9996 52.8366 92.3536 52.5134 92.6306 52.144C92.9384 51.7439 93.1539 51.3283 93.277 50.8974C93.4309 50.4356 93.5079 50.0509 93.5079 49.743H93.9696V55.1453H75.0387V54.6835ZM112.169 25.8716C109.891 25.8716 107.905 26.2872 106.212 27.1183C104.55 27.9186 103.165 28.9806 102.057 30.3042C100.949 31.5971 100.117 33.0592 99.5634 34.6907C99.0401 36.3221 98.7784 37.9382 98.7784 39.5388C98.7784 41.355 99.1324 43.1403 99.8404 44.8949C100.548 46.6187 101.518 48.1578 102.749 49.5122C104.011 50.8358 105.474 51.9132 107.136 52.7443C108.798 53.5446 110.599 53.9448 112.538 53.9448C113.092 53.9448 113.738 53.8832 114.477 53.7601C115.247 53.6369 116.001 53.4061 116.74 53.0675C117.478 52.6981 118.156 52.1902 118.771 51.5438C119.418 50.8974 119.91 50.0509 120.249 49.0043H120.711V54.1295C120.249 54.1295 119.756 54.191 119.233 54.3142C118.741 54.4373 118.186 54.5758 117.571 54.7297C116.77 54.9452 115.878 55.1453 114.893 55.33C113.939 55.5146 112.923 55.607 111.845 55.607C109.167 55.607 106.813 55.1453 104.781 54.2218C102.749 53.2983 101.056 52.0979 99.7019 50.6203C98.3475 49.1428 97.3317 47.4806 96.6545 45.6336C95.9773 43.7559 95.6387 41.8629 95.6387 39.9544C95.6387 38.0459 95.9773 36.1528 96.6545 34.2751C97.3317 32.3974 98.3629 30.7198 99.7481 29.2423C101.133 27.7339 102.872 26.5181 104.966 25.5946C107.059 24.6711 109.521 24.2094 112.353 24.2094C113.369 24.2094 114.277 24.3018 115.077 24.4864C115.909 24.6711 116.647 24.8558 117.294 25.0405C117.756 25.1944 118.171 25.3176 118.54 25.4099C118.941 25.4715 119.325 25.5023 119.695 25.5023V30.6274H119.233C119.048 29.6732 118.71 28.8883 118.217 28.2726C117.725 27.6262 117.14 27.1337 116.463 26.7951C115.816 26.4565 115.108 26.2256 114.339 26.1025C113.6 25.9486 112.877 25.8716 112.169 25.8716ZM143.384 46.9727C143.384 48.5118 143.076 49.8354 142.46 50.9435C141.845 52.0209 141.044 52.8982 140.059 53.5754C139.105 54.2526 138.012 54.7451 136.781 55.0529C135.58 55.3607 134.38 55.5146 133.179 55.5146C131.948 55.5146 130.886 55.3915 129.994 55.1453C129.101 54.899 128.285 54.6681 127.546 54.4527C127.054 54.2988 126.607 54.1756 126.207 54.0833C125.807 53.9602 125.407 53.8986 125.007 53.8986V48.6349H125.469C125.469 49.8046 125.761 50.7434 126.346 51.4514C126.961 52.1286 127.669 52.6519 128.47 53.0213C129.27 53.3907 130.07 53.6369 130.871 53.7601C131.671 53.8524 132.256 53.8986 132.625 53.8986C133.949 53.8986 135.088 53.7139 136.042 53.3445C136.996 52.9444 137.781 52.4365 138.397 51.8208C139.013 51.1744 139.459 50.4664 139.736 49.6969C140.044 48.9273 140.198 48.1424 140.198 47.342C140.198 46.3262 139.982 45.4797 139.551 44.8025C139.12 44.0945 138.551 43.4789 137.843 42.9556C137.166 42.4323 136.381 41.986 135.488 41.6166C134.595 41.2472 133.687 40.8778 132.764 40.5085C131.717 40.1083 130.686 39.6927 129.67 39.2618C128.654 38.8308 127.746 38.3075 126.946 37.6919C126.146 37.0455 125.499 36.2913 125.007 35.4294C124.514 34.5368 124.268 33.444 124.268 32.1512C124.268 30.7967 124.53 29.627 125.053 28.642C125.576 27.6262 126.269 26.7951 127.131 26.1487C128.023 25.5023 129.024 25.0251 130.132 24.7173C131.271 24.3787 132.425 24.2094 133.595 24.2094C134.395 24.2094 135.149 24.271 135.857 24.3941C136.565 24.4864 137.243 24.6096 137.889 24.7635C138.412 24.8866 138.92 24.9944 139.413 25.0867C139.905 25.1483 140.382 25.179 140.844 25.179V29.9349H140.382C140.321 28.3342 139.69 27.2568 138.489 26.7027C137.289 26.1179 135.627 25.8255 133.503 25.8255C132.271 25.8255 131.256 26.0409 130.455 26.4719C129.686 26.872 129.07 27.38 128.608 27.9956C128.147 28.5804 127.823 29.2269 127.639 29.9349C127.485 30.6121 127.408 31.2123 127.408 31.7356C127.408 32.5975 127.593 33.3363 127.962 33.9519C128.362 34.5675 128.885 35.1062 129.532 35.5679C130.178 36.0297 130.917 36.4452 131.748 36.8146C132.61 37.184 133.503 37.538 134.426 37.8766C135.473 38.2768 136.535 38.7077 137.612 39.1694C138.689 39.6312 139.644 40.2006 140.475 40.8778C141.337 41.555 142.029 42.3861 142.553 43.3712C143.107 44.3562 143.384 45.5567 143.384 46.9727Z" fill="#1E3A8A"/>
<path d="M12.5209 78.1111H12.6248C12.7356 78.1111 12.8326 78.0764 12.9157 78.0072C12.9988 77.9241 13.0681 77.8271 13.1235 77.7163C13.1928 77.6055 13.2412 77.4877 13.2689 77.3631C13.3105 77.2384 13.3313 77.1207 13.3313 77.0098V65.8937C13.3313 65.7968 13.3105 65.6859 13.2689 65.5613C13.2412 65.4366 13.1928 65.3189 13.1235 65.208C13.0681 65.0972 12.9988 65.0072 12.9157 64.9379C12.8326 64.8548 12.7356 64.8133 12.6248 64.8133H12.5209V64.6055H20.5204V66.5378H20.3126C20.2849 66.2192 20.1602 65.9422 19.9386 65.7067C19.717 65.4574 19.3707 65.3327 18.8997 65.3327H14.7234V70.5895H18.1725C18.4911 70.5895 18.7543 70.4925 18.9621 70.2986C19.1837 70.1047 19.2945 69.8761 19.2945 69.6129H19.5023V72.2102H19.2945C19.2945 71.9608 19.1906 71.7461 18.9828 71.5661C18.7751 71.386 18.5049 71.2959 18.1725 71.2959H14.7234V77.5916H19.2737C19.5369 77.5916 19.7655 77.5293 19.9594 77.4046C20.1533 77.28 20.3126 77.1345 20.4373 76.9683C20.5758 76.7882 20.6728 76.6012 20.7282 76.4073C20.7974 76.1995 20.8321 76.0264 20.8321 75.8878H21.0398V78.3188H12.5209V78.1111ZM27.4675 78.3188V77.2592L27.3636 77.3631C27.0173 77.7094 26.6156 77.9795 26.1585 78.1734C25.7152 78.3673 25.175 78.4643 24.5378 78.4643C24.053 78.4643 23.6374 78.4089 23.2912 78.2981C22.9449 78.1873 22.6609 78.0349 22.4393 77.841C22.2176 77.6332 22.0514 77.3977 21.9406 77.1345C21.8436 76.8713 21.7951 76.5943 21.7951 76.3034C21.7951 75.8324 21.9198 75.4169 22.1691 75.0567C22.4323 74.6966 22.8063 74.378 23.2912 74.101C23.776 73.8239 24.3647 73.5746 25.0573 73.353C25.7637 73.1175 26.5671 72.8889 27.4675 72.6673C27.4398 72.1271 27.329 71.6907 27.135 71.3583C26.9411 71.0258 26.7126 70.7696 26.4494 70.5895C26.1862 70.3956 25.9092 70.2709 25.6183 70.2155C25.3274 70.1462 25.078 70.1116 24.8703 70.1116C24.5101 70.1116 24.1915 70.167 23.9145 70.2778C23.6513 70.3886 23.4158 70.5341 23.208 70.7142C23.0141 70.8804 22.8479 71.0674 22.7094 71.2752C22.5709 71.4691 22.46 71.6561 22.3769 71.8362H22.1899V70.3194C22.3007 70.3055 22.4046 70.2709 22.5016 70.2155C22.5986 70.1601 22.7163 70.1047 22.8548 70.0493C23.0626 69.9662 23.3466 69.8484 23.7067 69.6961C24.0669 69.5298 24.5724 69.4467 25.2235 69.4467C25.9853 69.4467 26.6017 69.5437 27.0727 69.7376C27.5437 69.9315 27.9038 70.1878 28.1532 70.5064C28.4163 70.825 28.5895 71.1921 28.6726 71.6076C28.7557 72.0093 28.7973 72.4249 28.7973 72.8543V76.9683C28.7973 77.2453 28.8596 77.5085 28.9843 77.7578C29.1089 77.9933 29.2752 78.1111 29.4829 78.1111V78.3188H27.4675ZM27.4675 76.345V73.3737L27.2597 73.4153C26.9273 73.4984 26.5186 73.6092 26.0338 73.7477C25.5629 73.8862 25.1127 74.0663 24.6833 74.288C24.2539 74.5096 23.8868 74.7728 23.582 75.0775C23.2773 75.3823 23.1249 75.7355 23.1249 76.1372C23.1249 76.5804 23.305 76.9475 23.6652 77.2384C24.0253 77.5293 24.4963 77.6747 25.078 77.6747C25.5352 77.6747 25.9369 77.5778 26.2832 77.3838C26.6295 77.1761 26.948 76.9129 27.2389 76.5943L27.4675 76.345ZM37.6077 75.9502C37.6077 76.3103 37.5177 76.6428 37.3376 76.9475C37.1575 77.2523 36.9082 77.5224 36.5896 77.7578C36.2849 77.9795 35.9247 78.1596 35.5092 78.2981C35.0936 78.4227 34.6434 78.4851 34.1586 78.4851C33.563 78.4851 33.0781 78.4089 32.7041 78.2565C32.3301 78.0903 32.0116 77.9241 31.7484 77.7578C31.5683 77.647 31.4021 77.557 31.2497 77.4877C31.0973 77.4046 30.9311 77.3631 30.751 77.3631V75.784H30.9588C31.0004 75.9779 31.1181 76.1926 31.312 76.4281C31.5198 76.6497 31.7622 76.8575 32.0393 77.0514C32.3301 77.2453 32.6418 77.4115 32.9743 77.5501C33.3206 77.6747 33.6669 77.7371 34.0132 77.7371C34.2625 77.7371 34.5187 77.7094 34.7819 77.654C35.0451 77.5986 35.2806 77.5085 35.4884 77.3838C35.71 77.2592 35.8901 77.1068 36.0286 76.9267C36.181 76.7328 36.2572 76.5043 36.2572 76.2411C36.2572 75.9779 36.181 75.7493 36.0286 75.5554C35.8762 75.3615 35.6823 75.1953 35.4468 75.0567C35.2113 74.9044 34.9412 74.7728 34.6365 74.662C34.3317 74.5511 34.027 74.4472 33.7223 74.3503C33.3621 74.2395 32.995 74.1148 32.621 73.9763C32.2609 73.8378 31.9354 73.6785 31.6445 73.4984C31.3536 73.3045 31.1181 73.0759 30.938 72.8127C30.758 72.5357 30.6679 72.2102 30.6679 71.8362C30.6679 71.5176 30.7233 71.2128 30.8341 70.9219C30.9588 70.6311 31.1527 70.3817 31.4159 70.1739C31.693 69.9523 32.0462 69.7792 32.4756 69.6545C32.905 69.516 33.4244 69.4467 34.0339 69.4467C34.5742 69.4467 34.9897 69.4952 35.2806 69.5922C35.5853 69.6753 35.8347 69.7653 36.0286 69.8623C36.1533 69.9315 36.2779 69.9869 36.4026 70.0285C36.5273 70.0562 36.6658 70.0701 36.8182 70.0701V71.5245H36.6519C36.4026 71.0674 36.0217 70.7211 35.5092 70.4856C34.9966 70.2501 34.4703 70.1324 33.93 70.1324C33.5837 70.1324 33.2859 70.1809 33.0366 70.2778C32.7873 70.3609 32.5795 70.4718 32.4133 70.6103C32.2609 70.7349 32.1431 70.8804 32.06 71.0466C31.9908 71.2128 31.9561 71.3791 31.9561 71.5453C31.9561 71.7808 32.0185 71.9816 32.1431 72.1478C32.2817 72.3141 32.4617 72.4595 32.6834 72.5842C32.9189 72.7088 33.1751 72.8266 33.4521 72.9374C33.743 73.0482 34.0478 73.1521 34.3664 73.2491C34.7542 73.3737 35.1421 73.5122 35.5299 73.6646C35.9178 73.8031 36.2641 73.9763 36.5688 74.1841C36.8736 74.3918 37.1229 74.6412 37.3168 74.9321C37.5107 75.2091 37.6077 75.5485 37.6077 75.9502ZM42.0985 81.2901C41.9046 81.8719 41.6552 82.2666 41.3505 82.4744C41.0596 82.6822 40.7548 82.7861 40.4363 82.7861C40.2285 82.7861 40.0415 82.7584 39.8753 82.703C39.7229 82.6476 39.5844 82.5783 39.4597 82.4952C39.3489 82.4259 39.2588 82.3567 39.1896 82.2874C39.1203 82.2182 39.0788 82.1627 39.0649 82.1212L39.7506 80.4382C39.8198 80.6875 39.8891 80.8745 39.9584 80.9992C40.0276 81.1377 40.1246 81.2624 40.2493 81.3732C40.3739 81.484 40.5263 81.5394 40.7064 81.5394C41.0388 81.5394 41.302 81.297 41.4959 80.8122L42.514 78.2565L39.1688 70.6934C39.0995 70.5272 38.9818 70.3402 38.8156 70.1324C38.6632 69.9108 38.4485 69.7999 38.1715 69.7999V69.5922H40.9141V69.7999C40.8587 69.7999 40.7895 69.8484 40.7064 69.9454C40.6233 70.0424 40.5817 70.167 40.5817 70.3194C40.5817 70.4441 40.6094 70.5549 40.6648 70.6518L43.2205 76.532L45.6723 70.5272C45.7138 70.4302 45.7346 70.3402 45.7346 70.2571C45.7346 70.1185 45.6861 70.0077 45.5891 69.9246C45.506 69.8415 45.416 69.7999 45.319 69.7999V69.5922H47.3345V69.7999C47.1129 69.7999 46.9189 69.8969 46.7527 70.0908C46.6003 70.2709 46.4757 70.4787 46.3787 70.7142L42.0985 81.2901ZM55.3055 65.1457C54.2805 65.1457 53.3871 65.3327 52.6252 65.7067C51.8772 66.0669 51.2539 66.5448 50.7552 67.1404C50.2565 67.7222 49.8825 68.3801 49.6332 69.1143C49.3977 69.8484 49.28 70.5756 49.28 71.2959C49.28 72.1132 49.4393 72.9166 49.7579 73.7062C50.0765 74.4819 50.5128 75.1745 51.0669 75.784C51.6348 76.3796 52.2928 76.8644 53.0408 77.2384C53.7888 77.5986 54.5991 77.7786 55.4718 77.7786C55.7211 77.7786 56.012 77.7509 56.3444 77.6955C56.6907 77.6401 57.0301 77.5362 57.3625 77.3838C57.695 77.2176 57.9997 76.9891 58.2768 76.6982C58.5677 76.4073 58.7893 76.0264 58.9417 75.5554H59.1494V77.8617C58.9417 77.8617 58.72 77.8894 58.4845 77.9448C58.2629 78.0003 58.0136 78.0626 57.7365 78.1318C57.3764 78.2288 56.9747 78.3188 56.5314 78.402C56.102 78.4851 55.6449 78.5266 55.1601 78.5266C53.955 78.5266 52.8953 78.3188 51.9811 77.9033C51.0669 77.4877 50.305 76.9475 49.6955 76.2826C49.086 75.6177 48.6289 74.8697 48.3242 74.0386C48.0194 73.1937 47.8671 72.3418 47.8671 71.4829C47.8671 70.6241 48.0194 69.7722 48.3242 68.9273C48.6289 68.0823 49.093 67.3274 49.7163 66.6625C50.3396 65.9838 51.1223 65.4366 52.0642 65.021C53.0061 64.6055 54.1143 64.3977 55.3886 64.3977C55.8458 64.3977 56.2544 64.4393 56.6145 64.5224C56.9885 64.6055 57.321 64.6886 57.6119 64.7717C57.8196 64.841 58.0067 64.8964 58.1729 64.9379C58.3529 64.9656 58.5261 64.9795 58.6923 64.9795V67.2858H58.4845C58.4014 66.8564 58.2491 66.5032 58.0274 66.2262C57.8058 65.9353 57.5426 65.7136 57.2379 65.5613C56.947 65.4089 56.6284 65.305 56.2821 65.2496C55.9496 65.1803 55.6241 65.1457 55.3055 65.1457ZM65.7993 78.3188V77.2592L65.6954 77.3631C65.3491 77.7094 64.9474 77.9795 64.4903 78.1734C64.047 78.3673 63.5068 78.4643 62.8696 78.4643C62.3848 78.4643 61.9693 78.4089 61.623 78.2981C61.2767 78.1873 60.9927 78.0349 60.7711 77.841C60.5494 77.6332 60.3832 77.3977 60.2724 77.1345C60.1754 76.8713 60.127 76.5943 60.127 76.3034C60.127 75.8324 60.2516 75.4169 60.501 75.0567C60.7641 74.6966 61.1381 74.378 61.623 74.101C62.1078 73.8239 62.6965 73.5746 63.3891 73.353C64.0955 73.1175 64.8989 72.8889 65.7993 72.6673C65.7716 72.1271 65.6608 71.6907 65.4669 71.3583C65.2729 71.0258 65.0444 70.7696 64.7812 70.5895C64.518 70.3956 64.241 70.2709 63.9501 70.2155C63.6592 70.1462 63.4099 70.1116 63.2021 70.1116C62.8419 70.1116 62.5233 70.167 62.2463 70.2778C61.9831 70.3886 61.7476 70.5341 61.5399 70.7142C61.3459 70.8804 61.1797 71.0674 61.0412 71.2752C60.9027 71.4691 60.7919 71.6561 60.7087 71.8362H60.5217V70.3194C60.6326 70.3055 60.7364 70.2709 60.8334 70.2155C60.9304 70.1601 61.0481 70.1047 61.1866 70.0493C61.3944 69.9662 61.6784 69.8484 62.0385 69.6961C62.3987 69.5298 62.9043 69.4467 63.5553 69.4467C64.3172 69.4467 64.9336 69.5437 65.4045 69.7376C65.8755 69.9315 66.2356 70.1878 66.485 70.5064C66.7482 70.825 66.9213 71.1921 67.0044 71.6076C67.0875 72.0093 67.1291 72.4249 67.1291 72.8543V76.9683C67.1291 77.2453 67.1914 77.5085 67.3161 77.7578C67.4408 77.9933 67.607 78.1111 67.8148 78.1111V78.3188H65.7993ZM65.7993 76.345V73.3737L65.5915 73.4153C65.2591 73.4984 64.8505 73.6092 64.3656 73.7477C63.8947 73.8862 63.4445 74.0663 63.0151 74.288C62.5857 74.5096 62.2186 74.7728 61.9139 75.0775C61.6091 75.3823 61.4567 75.7355 61.4567 76.1372C61.4567 76.5804 61.6368 76.9475 61.997 77.2384C62.3571 77.5293 62.8281 77.6747 63.4099 77.6747C63.867 77.6747 64.2687 77.5778 64.615 77.3838C64.9613 77.1761 65.2799 76.9129 65.5707 76.5943L65.7993 76.345ZM74.2565 71.1089C74.0903 70.8319 73.9172 70.6588 73.7371 70.5895C73.557 70.5202 73.3492 70.4856 73.1137 70.4856C72.9614 70.4856 72.7952 70.5202 72.6151 70.5895C72.4489 70.6588 72.2826 70.7488 72.1164 70.8596C71.9502 70.9704 71.784 71.0951 71.6177 71.2336C71.4654 71.3583 71.3338 71.476 71.223 71.5868V76.9891C71.223 77.0999 71.2368 77.2176 71.2645 77.3423C71.2922 77.467 71.3338 77.5916 71.3892 77.7163C71.4584 77.8271 71.5277 77.9241 71.597 78.0072C71.6801 78.0764 71.777 78.1111 71.8879 78.1111V78.3188H69.1867V78.1111C69.2837 78.1111 69.3737 78.0764 69.4568 78.0072C69.54 77.9241 69.6092 77.8271 69.6646 77.7163C69.7339 77.5916 69.7824 77.467 69.8101 77.3423C69.8378 77.2176 69.8516 77.0999 69.8516 76.9891V71.1921C69.8516 70.9981 69.7893 70.8042 69.6646 70.6103C69.54 70.4164 69.3599 70.2917 69.1244 70.2363V70.0701L71.223 69.4467V70.6934C71.3476 70.541 71.4792 70.3956 71.6177 70.2571C71.7563 70.1047 71.9086 69.9731 72.0749 69.8623C72.2549 69.7376 72.4489 69.6406 72.6566 69.5714C72.8644 69.4883 73.1068 69.4467 73.3839 69.4467C73.5778 69.4467 73.8271 69.4883 74.1319 69.5714C74.4366 69.6545 74.6859 69.7445 74.8799 69.8415L74.2565 71.1089ZM83.9788 74.6412C83.9788 75.3338 83.8402 75.9294 83.5632 76.4281C83.2862 76.9129 82.926 77.3077 82.4828 77.6124C82.0533 77.9171 81.5616 78.1388 81.0075 78.2773C80.4673 78.4158 79.9271 78.4851 79.3869 78.4851C78.8328 78.4851 78.3549 78.4297 77.9532 78.3188C77.5515 78.208 77.1844 78.1041 76.852 78.0072C76.6303 77.9379 76.4295 77.8825 76.2494 77.841C76.0693 77.7856 75.8893 77.7578 75.7092 77.7578V75.3892H75.917C75.917 75.9155 76.0486 76.338 76.3117 76.6566C76.5888 76.9614 76.9074 77.1968 77.2675 77.3631C77.6277 77.5293 77.9878 77.6401 78.348 77.6955C78.7081 77.7371 78.9713 77.7578 79.1375 77.7578C79.7332 77.7578 80.2457 77.6747 80.6751 77.5085C81.1045 77.3284 81.4577 77.0999 81.7347 76.8228C82.0118 76.532 82.2126 76.2134 82.3373 75.8671C82.4758 75.5208 82.5451 75.1675 82.5451 74.8074C82.5451 74.3503 82.4481 73.9694 82.2542 73.6646C82.0603 73.346 81.804 73.069 81.4854 72.8335C81.1807 72.598 80.8275 72.3972 80.4257 72.2309C80.024 72.0647 79.6154 71.8985 79.1999 71.7323C78.7289 71.5522 78.2649 71.3652 77.8077 71.1713C77.3506 70.9774 76.942 70.7419 76.5819 70.4648C76.2217 70.1739 75.9308 69.8346 75.7092 69.4467C75.4876 69.045 75.3767 68.5533 75.3767 67.9715C75.3767 67.362 75.4945 66.8356 75.73 66.3924C75.9654 65.9353 76.2771 65.5613 76.665 65.2704C77.0667 64.9795 77.5169 64.7648 78.0155 64.6263C78.528 64.4739 79.0475 64.3977 79.5739 64.3977C79.934 64.3977 80.2734 64.4254 80.592 64.4808C80.9106 64.5224 81.2153 64.5778 81.5062 64.647C81.7417 64.7025 81.9702 64.7509 82.1919 64.7925C82.4135 64.8202 82.6282 64.834 82.836 64.834V66.9742H82.6282C82.6005 66.2539 82.3165 65.769 81.7763 65.5197C81.2361 65.2565 80.4881 65.1249 79.5323 65.1249C78.9782 65.1249 78.5211 65.2219 78.161 65.4158C77.8147 65.5959 77.5376 65.8245 77.3299 66.1015C77.1221 66.3647 76.9766 66.6556 76.8935 66.9742C76.8243 67.2789 76.7896 67.549 76.7896 67.7845C76.7896 68.1723 76.8727 68.5048 77.039 68.7818C77.219 69.0589 77.4545 69.3013 77.7454 69.5091C78.0363 69.7168 78.3687 69.9038 78.7427 70.0701C79.1306 70.2363 79.5323 70.3956 79.9479 70.5479C80.4188 70.728 80.8967 70.9219 81.3815 71.1297C81.8663 71.3375 82.2958 71.5938 82.6698 71.8985C83.0576 72.2032 83.3693 72.5772 83.6048 73.0205C83.8541 73.4638 83.9788 74.004 83.9788 74.6412ZM89.4897 78.4643C88.7971 78.4643 88.1738 78.3535 87.6197 78.1318C87.0657 77.8964 86.5878 77.5847 86.1861 77.1968C85.7982 76.7951 85.4935 76.3242 85.2718 75.784C85.0641 75.2437 84.9602 74.655 84.9602 74.0178C84.9602 73.3391 85.0779 72.7227 85.3134 72.1686C85.5489 71.6007 85.8744 71.1159 86.29 70.7142C86.7055 70.3125 87.1973 70.0008 87.7652 69.7792C88.3331 69.5575 88.9495 69.4467 89.6144 69.4467C90.2793 69.4467 90.8888 69.5575 91.4429 69.7792C91.9969 69.9869 92.4748 70.2848 92.8765 70.6726C93.2782 71.0605 93.5899 71.5245 93.8115 72.0647C94.0332 72.5911 94.144 73.1729 94.144 73.8101C94.144 74.4057 94.0401 74.9875 93.8323 75.5554C93.6384 76.1095 93.3406 76.6012 92.9389 77.0306C92.551 77.46 92.0662 77.8063 91.4844 78.0695C90.9165 78.3327 90.2516 78.4643 89.4897 78.4643ZM89.3651 70.1324C88.8664 70.1601 88.4231 70.2848 88.0353 70.5064C87.6613 70.7142 87.3427 70.9912 87.0795 71.3375C86.8302 71.6699 86.6363 72.0509 86.4977 72.4803C86.3731 72.9097 86.3107 73.346 86.3107 73.7893C86.3107 74.3018 86.3869 74.8005 86.5393 75.2853C86.7055 75.7563 86.9341 76.1787 87.225 76.5527C87.5297 76.9267 87.8898 77.2245 88.3054 77.4462C88.721 77.6678 89.185 77.7786 89.6975 77.7786C90.21 77.7786 90.6602 77.6678 91.0481 77.4462C91.4498 77.2245 91.7822 76.9406 92.0454 76.5943C92.3086 76.2341 92.5025 75.8324 92.6272 75.3892C92.7657 74.9459 92.835 74.5027 92.835 74.0594C92.835 73.6023 92.7657 73.1452 92.6272 72.6881C92.4887 72.2171 92.274 71.7946 91.9831 71.4206C91.6922 71.0328 91.3251 70.7211 90.8819 70.4856C90.4524 70.2501 89.9469 70.1324 89.3651 70.1324ZM95.4621 78.3188V78.1111C95.5729 78.1111 95.6698 78.0695 95.753 77.9864C95.8361 77.9033 95.9053 77.8063 95.9607 77.6955C96.03 77.5847 96.0785 77.467 96.1062 77.3423C96.1339 77.2038 96.1477 77.0791 96.1477 76.9683V66.3301C96.1477 66.0946 96.1131 65.8729 96.0438 65.6652C95.9746 65.4574 95.7668 65.3466 95.4205 65.3327V65.1249L97.5191 64.4808V76.9683C97.5191 77.0791 97.5329 77.2038 97.5606 77.3423C97.5883 77.467 97.6299 77.5847 97.6853 77.6955C97.7546 77.8063 97.8238 77.9033 97.8931 77.9864C97.9762 78.0695 98.0731 78.1111 98.184 78.1111V78.3188H95.4621ZM107.793 76.9683C107.793 77.0653 107.806 77.183 107.834 77.3215C107.862 77.4462 107.896 77.5708 107.938 77.6955C107.993 77.8063 108.063 77.9033 108.146 77.9864C108.229 78.0695 108.326 78.1111 108.437 78.1111V78.3188H106.421V77.1761C106.213 77.4808 105.909 77.7786 105.507 78.0695C105.105 78.3604 104.586 78.5058 103.949 78.5058C103.145 78.5058 102.508 78.3673 102.037 78.0903C101.566 77.8133 101.206 77.46 100.957 77.0306C100.707 76.6012 100.548 76.1372 100.479 75.6385C100.41 75.126 100.375 74.6481 100.375 74.2048V71.2336C100.375 71.1089 100.368 70.9912 100.354 70.8804C100.354 70.7557 100.326 70.6449 100.271 70.5479C100.229 70.451 100.16 70.3748 100.063 70.3194C99.9663 70.2501 99.8277 70.2155 99.6477 70.2155V70.0285L101.746 69.3636V74.662C101.746 75.7147 101.975 76.4904 102.432 76.9891C102.889 77.4877 103.45 77.7371 104.115 77.7371C104.475 77.7371 104.794 77.6609 105.071 77.5085C105.362 77.3423 105.604 77.1484 105.798 76.9267C106.006 76.7051 106.158 76.4765 106.255 76.2411C106.366 76.0056 106.421 75.8117 106.421 75.6593V71.2336C106.421 71.1089 106.414 70.9912 106.4 70.8804C106.4 70.7557 106.373 70.6449 106.317 70.5479C106.276 70.451 106.207 70.3748 106.11 70.3194C106.013 70.2501 105.874 70.2155 105.694 70.2155V70.0285L107.793 69.3636V76.9683ZM111.874 70.2986V75.3061C111.874 75.6662 111.881 75.9917 111.894 76.2826C111.908 76.5735 111.943 76.8159 111.998 77.0098C112.054 77.2038 112.137 77.3561 112.248 77.467C112.358 77.5639 112.511 77.6124 112.705 77.6124C112.996 77.6124 113.266 77.4739 113.515 77.1968C113.778 76.9198 113.944 76.5874 114.014 76.1995H114.201V77.7163C114.076 77.7163 113.972 77.7578 113.889 77.841C113.778 77.9379 113.619 78.0418 113.411 78.1526C113.217 78.2634 112.919 78.3188 112.518 78.3188C112.019 78.3188 111.631 78.2219 111.354 78.028C111.077 77.834 110.876 77.5778 110.752 77.2592C110.627 76.9406 110.551 76.5874 110.523 76.1995C110.509 75.8117 110.502 75.4169 110.502 75.0152V70.2986H109.339V69.5922H110.502V67.7429C110.502 67.5075 110.468 67.2928 110.398 67.0988C110.343 66.8911 110.142 66.7802 109.796 66.7664V66.5586L111.874 65.8937V69.5922H114.201V70.2986H111.874ZM115.43 78.3188V78.1111C115.541 78.1111 115.638 78.0695 115.721 77.9864C115.804 77.9033 115.873 77.8063 115.929 77.6955C115.984 77.5847 116.025 77.467 116.053 77.3423C116.081 77.2038 116.095 77.0791 116.095 76.9683V71.2128C116.095 70.9774 116.06 70.7557 115.991 70.5479C115.922 70.3263 115.721 70.2086 115.388 70.1947V70.0077L117.466 69.3428V76.9683C117.466 77.0791 117.48 77.2038 117.508 77.3423C117.535 77.467 117.577 77.5847 117.632 77.6955C117.688 77.8063 117.757 77.9033 117.84 77.9864C117.923 78.0695 118.02 78.1111 118.131 78.1111V78.3188H115.43ZM115.534 67.3482C115.534 67.0711 115.624 66.8356 115.804 66.6417C115.998 66.4478 116.233 66.3508 116.51 66.3508C116.787 66.3508 117.023 66.4478 117.217 66.6417C117.411 66.8356 117.508 67.0711 117.508 67.3482C117.508 67.6252 117.411 67.8538 117.217 68.0338C117.023 68.2139 116.787 68.3039 116.51 68.3039C116.233 68.3039 115.998 68.2139 115.804 68.0338C115.624 67.8538 115.534 67.6252 115.534 67.3482ZM124.094 78.4643C123.401 78.4643 122.778 78.3535 122.224 78.1318C121.67 77.8964 121.192 77.5847 120.79 77.1968C120.402 76.7951 120.097 76.3242 119.876 75.784C119.668 75.2437 119.564 74.655 119.564 74.0178C119.564 73.3391 119.682 72.7227 119.917 72.1686C120.153 71.6007 120.478 71.1159 120.894 70.7142C121.309 70.3125 121.801 70.0008 122.369 69.7792C122.937 69.5575 123.553 69.4467 124.218 69.4467C124.883 69.4467 125.493 69.5575 126.047 69.7792C126.601 69.9869 127.079 70.2848 127.481 70.6726C127.882 71.0605 128.194 71.5245 128.416 72.0647C128.637 72.5911 128.748 73.1729 128.748 73.8101C128.748 74.4057 128.644 74.9875 128.436 75.5554C128.242 76.1095 127.945 76.6012 127.543 77.0306C127.155 77.46 126.67 77.8063 126.088 78.0695C125.52 78.3327 124.856 78.4643 124.094 78.4643ZM123.969 70.1324C123.47 70.1601 123.027 70.2848 122.639 70.5064C122.265 70.7142 121.947 70.9912 121.683 71.3375C121.434 71.6699 121.24 72.0509 121.102 72.4803C120.977 72.9097 120.915 73.346 120.915 73.7893C120.915 74.3018 120.991 74.8005 121.143 75.2853C121.309 75.7563 121.538 76.1787 121.829 76.5527C122.134 76.9267 122.494 77.2245 122.909 77.4462C123.325 77.6678 123.789 77.7786 124.301 77.7786C124.814 77.7786 125.264 77.6678 125.652 77.4462C126.054 77.2245 126.386 76.9406 126.649 76.5943C126.913 76.2341 127.107 75.8324 127.231 75.3892C127.37 74.9459 127.439 74.5027 127.439 74.0594C127.439 73.6023 127.37 73.1452 127.231 72.6881C127.093 72.2171 126.878 71.7946 126.587 71.4206C126.296 71.0328 125.929 70.7211 125.486 70.4856C125.056 70.2501 124.551 70.1324 123.969 70.1324ZM138.336 76.9683C138.336 77.0791 138.349 77.2038 138.377 77.3423C138.405 77.467 138.446 77.5847 138.502 77.6955C138.571 77.8063 138.64 77.9033 138.71 77.9864C138.793 78.0695 138.89 78.1111 139.001 78.1111V78.3188H136.32V78.1111C136.417 78.1111 136.507 78.0695 136.59 77.9864C136.673 77.9033 136.743 77.8063 136.798 77.6955C136.867 77.5847 136.916 77.467 136.944 77.3423C136.971 77.2038 136.985 77.0791 136.985 76.9683V73.1036C136.985 72.6049 136.916 72.1686 136.777 71.7946C136.639 71.4206 136.452 71.1089 136.216 70.8596C135.981 70.6103 135.711 70.4302 135.406 70.3194C135.115 70.1947 134.817 70.1324 134.513 70.1324C134.208 70.1324 133.903 70.1947 133.598 70.3194C133.307 70.4441 133.044 70.6103 132.809 70.8181C132.587 71.012 132.4 71.2475 132.248 71.5245C132.109 71.7877 132.04 72.0647 132.04 72.3556V76.9683C132.04 77.0791 132.054 77.2038 132.081 77.3423C132.109 77.467 132.151 77.5847 132.206 77.6955C132.275 77.8063 132.345 77.9033 132.414 77.9864C132.497 78.0695 132.594 78.1111 132.705 78.1111V78.3188H130.004V78.1111C130.101 78.1111 130.191 78.0695 130.274 77.9864C130.357 77.9033 130.426 77.8063 130.482 77.6955C130.551 77.5847 130.599 77.467 130.627 77.3423C130.655 77.2038 130.669 77.0791 130.669 76.9683V71.2336C130.669 70.9981 130.634 70.7765 130.565 70.5687C130.495 70.3471 130.295 70.2294 129.962 70.2155V70.0285L132.04 69.3636V70.5064C132.137 70.3956 132.262 70.2778 132.414 70.1532C132.566 70.0146 132.746 69.89 132.954 69.7792C133.176 69.6545 133.425 69.5575 133.702 69.4883C133.993 69.4052 134.332 69.3636 134.72 69.3636C135.371 69.3636 135.925 69.4744 136.383 69.6961C136.84 69.9177 137.214 70.2086 137.505 70.5687C137.795 70.915 138.003 71.3029 138.128 71.7323C138.266 72.1478 138.336 72.5565 138.336 72.9582V76.9683ZM147.171 75.9502C147.171 76.3103 147.081 76.6428 146.901 76.9475C146.721 77.2523 146.471 77.5224 146.153 77.7578C145.848 77.9795 145.488 78.1596 145.072 78.2981C144.657 78.4227 144.207 78.4851 143.722 78.4851C143.126 78.4851 142.641 78.4089 142.267 78.2565C141.893 78.0903 141.575 77.9241 141.312 77.7578C141.131 77.647 140.965 77.557 140.813 77.4877C140.661 77.4046 140.494 77.3631 140.314 77.3631V75.784H140.522C140.564 75.9779 140.681 76.1926 140.875 76.4281C141.083 76.6497 141.325 76.8575 141.602 77.0514C141.893 77.2453 142.205 77.4115 142.537 77.5501C142.884 77.6747 143.23 77.7371 143.576 77.7371C143.826 77.7371 144.082 77.7094 144.345 77.654C144.608 77.5986 144.844 77.5085 145.052 77.3838C145.273 77.2592 145.453 77.1068 145.592 76.9267C145.744 76.7328 145.82 76.5043 145.82 76.2411C145.82 75.9779 145.744 75.7493 145.592 75.5554C145.439 75.3615 145.245 75.1953 145.01 75.0567C144.775 74.9044 144.504 74.7728 144.2 74.662C143.895 74.5511 143.59 74.4472 143.285 74.3503C142.925 74.2395 142.558 74.1148 142.184 73.9763C141.824 73.8378 141.499 73.6785 141.208 73.4984C140.917 73.3045 140.681 73.0759 140.501 72.8127C140.321 72.5357 140.231 72.2102 140.231 71.8362C140.231 71.5176 140.287 71.2128 140.397 70.9219C140.522 70.6311 140.716 70.3817 140.979 70.1739C141.256 69.9523 141.609 69.7792 142.039 69.6545C142.468 69.516 142.988 69.4467 143.597 69.4467C144.137 69.4467 144.553 69.4952 144.844 69.5922C145.149 69.6753 145.398 69.7653 145.592 69.8623C145.716 69.9315 145.841 69.9869 145.966 70.0285C146.09 70.0562 146.229 70.0701 146.381 70.0701V71.5245H146.215C145.966 71.0674 145.585 70.7211 145.072 70.4856C144.56 70.2501 144.033 70.1324 143.493 70.1324C143.147 70.1324 142.849 70.1809 142.6 70.2778C142.35 70.3609 142.143 70.4718 141.976 70.6103C141.824 70.7349 141.706 70.8804 141.623 71.0466C141.554 71.2128 141.519 71.3791 141.519 71.5453C141.519 71.7808 141.582 71.9816 141.706 72.1478C141.845 72.3141 142.025 72.4595 142.247 72.5842C142.482 72.7088 142.738 72.8266 143.015 72.9374C143.306 73.0482 143.611 73.1521 143.93 73.2491C144.317 73.3737 144.705 73.5122 145.093 73.6646C145.481 73.8031 145.827 73.9763 146.132 74.1841C146.437 74.3918 146.686 74.6412 146.88 74.9321C147.074 75.2091 147.171 75.5485 147.171 75.9502Z" fill="#1E3A8A"/>
<path d="M23.625 29.1955L35.9094 43.0277C36.6251 43.8335 37.8818 43.8397 38.6054 43.041L69.9501 8.43921" stroke="#22C55E" stroke-width="3.62155" stroke-linecap="round"/>
<path d="M64.5869 21.8797C67.615 27.9449 68.2457 34.9184 66.3531 41.4247C64.4603 47.9311 60.1815 53.4976 54.36 57.0248C48.5386 60.5519 41.5987 61.7829 34.9101 60.4759C28.2217 59.169 22.2704 55.4194 18.2294 49.968C14.1884 44.5165 12.3502 37.7578 13.0783 31.0247C13.8065 24.2914 17.0485 18.0725 22.1659 13.5957C27.2834 9.11895 33.9036 6.7106 40.7196 6.84525C47.5355 6.97989 54.0517 9.64751 58.9832 14.3202" stroke="#22C55E" stroke-width="3.62158"/>
</svg>
